<?xml version="1.0" encoding="utf-8"?>
<!-- Generator: Adobe Illustrator 19.0.0, SVG Export Plug-In . SVG Version: 6.00 Build 0)  -->
<svg version="1.1" id="Layer_1" xmlns="http://www.w3.org/2000/svg" xmlns:xlink="http://www.w3.org/1999/xlink" x="0px" y="0px"
	 viewBox="-293.5 384.6 25.4 25" style="enable-background:new -293.5 384.6 25.4 25;" xml:space="preserve">
<g>
	<path d="M-268.2,391l-12.6-6.4l-12.7,6.4v2.1h2.2c0,0.1,0,0.2,0,0.3c0,0.8,0.5,1.6,1.4,1.9v7.4c-0.7,0.3-1.4,0.9-1.4,1.9
		c0,0.1,0,0.1,0,0.2h-0.3v1.5h-1.7v3.4h25v-3.4h-1.7v-1.5h-0.3c0-0.1,0-0.1,0-0.2c0-0.8-0.5-1.6-1.4-1.9v-7.4
		c0.7-0.3,1.4-0.9,1.4-1.9c0-0.1,0-0.2,0-0.3h2.2V391H-268.2z M-269.1,407.5h-2.9v0.5h2.9v0.7h-23.4V408h2.9v-0.5h-2.9v-0.7h23.4
		V407.5z M-290.6,404.4c0-0.6,0.5-1.1,1.1-1.1h2.2c0.6,0,1.1,0.5,1.1,1.1c0,0.1,0,0.1,0,0.2h-4.4
		C-290.5,404.6-290.6,404.5-290.6,404.4z M-274.3,395.3h0.6v7.2h-0.6V395.3z M-273.2,402.5v-7.2h0.7v7.2H-273.2z M-283.1,404.4
		c0-0.6,0.5-1.1,1.1-1.1h2.2c0.6,0,1.1,0.5,1.1,1.1c0,0.1,0,0.1,0,0.2h-4.5C-283.1,404.6-283.1,404.5-283.1,404.4z M-283.1,393.1
		h4.6c0,0.1,0,0.1,0,0.2c0,0.6-0.5,1.1-1.1,1.1h-2.2c-0.7,0-1.3-0.5-1.3-1.1C-283.1,393.2-283.1,393.2-283.1,393.1z M-279.9,395.3
		v7.2h-0.7v-7.2C-280.6,395.3-279.9,395.3-279.9,395.3z M-281.1,395.3v7.2h-0.6v-7.2C-281.7,395.3-281.1,395.3-281.1,395.3z
		 M-287.3,402.5h-0.7v-7.2h0.7V402.5z M-288.5,395.3v7.2h-0.7v-7.2C-289.2,395.3-288.5,395.3-288.5,395.3z M-290.5,393.1h4.6
		c0,0.1,0,0.1,0,0.2c0,0.6-0.5,1.1-1.1,1.1h-2.3c-0.6,0-1.3-0.5-1.3-1.1C-290.6,393.2-290.5,393.2-290.5,393.1z M-290.9,406.1v-0.6
		h5.4h1.8h5.6h1.8h5.4v0.6H-290.9z M-271.1,404.6h-4.6c0-0.1,0-0.1,0-0.2c0-0.6,0.5-1.1,1.1-1.1h2.2c0.6,0,1.1,0.5,1.1,1.1
		C-271.1,404.5-271.1,404.6-271.1,404.6z M-272.3,394.5h-2.2c-0.6,0-1.1-0.5-1.1-1.1c0-0.1,0-0.1,0-0.2h4.6c0,0.1,0,0.1,0,0.2
		C-271.1,394-271.6,394.5-272.3,394.5z M-275.2,395.2v7.4c-0.7,0.3-1.4,0.9-1.4,1.9c0,0.1,0,0.1,0,0.2h-1.4c0-0.1,0-0.1,0-0.2
		c0-0.8-0.5-1.6-1.4-1.9v-7.4c0.7-0.3,1.4-0.9,1.4-1.9c0-0.1,0-0.2,0-0.3h1.4c0,0.1,0,0.2,0,0.3
		C-276.4,394.2-275.9,394.9-275.2,395.2z M-282.6,395.2v7.4c-0.7,0.3-1.4,0.9-1.4,1.9c0,0.1,0,0.1,0,0.2h-1.3c0-0.1,0-0.1,0-0.2
		c0-0.8-0.5-1.6-1.4-1.9v-7.4c0.7-0.3,1.4-1,1.4-1.9c0-0.1,0-0.2,0-0.3h1.4c0,0.1,0,0.2,0,0.3C-283.9,394.2-283.3,394.9-282.6,395.2
		z M-268.9,392.3h-23.8v-0.8l11.9-5.9l11.9,5.9C-268.9,391.5-268.9,392.3-268.9,392.3z"/>
	<path d="M-283.1,389.1c0,1.1,0.9,2,2,2c1,0,2-0.9,2-2c0-1.1-0.9-2-2-2C-282.2,387.1-283.1,387.9-283.1,389.1z M-279.8,389.1
		c0,0.7-0.5,1.3-1.3,1.3s-1.3-0.5-1.3-1.3c0-0.7,0.5-1.3,1.3-1.3S-279.8,388.4-279.8,389.1z"/>
</g>
</svg>
