<?xml version="1.0" encoding="utf-8"?>
<!-- Generator: Adobe Illustrator 19.0.0, SVG Export Plug-In . SVG Version: 6.00 Build 0)  -->
<svg version="1.1" id="Слой_1" xmlns="http://www.w3.org/2000/svg" xmlns:xlink="http://www.w3.org/1999/xlink" x="0px" y="0px"
	 viewBox="0 0 37.4 33.3" style="enable-background:new 0 0 37.4 33.3;" xml:space="preserve">
<g>
	<path d="M30.3,24.2c-2.8,4.2-7.7,6.5-12.7,6c-0.1,0-0.2,0-0.3,0c-0.1,0-0.2,0-0.2-0.1c-3.8-0.4-7.3-2.4-9.5-5.4l4.1-1L3.4,15
		L0,26.5l4.4-1c2.7,4.3,7.2,7.1,12.4,7.7c0.1,0,0.2,0,0.2,0c0.1,0,0.2,0,0.3,0.1c5,0.5,10-1.3,13.5-4.8c0.8-0.8,1.5-1.6,2.1-2.5
		c0.5-0.7,0.3-1.6-0.4-2.1C31.7,23.4,30.8,23.5,30.3,24.2z"/>
	<path d="M25.7,9.5l8.2,8.7l3.4-11.5l-4.4,1c-2.7-4.3-7.2-7.1-12.4-7.7c-0.1,0-0.2,0-0.3,0c-0.1,0-0.2,0-0.3-0.1
		C13.9-0.5,8,2.2,4.6,7.4C4.1,8.1,4.3,9,5,9.5C5.7,9.9,6.6,9.7,7,9c2.8-4.2,7.7-6.5,12.7-6c0.1,0,0.2,0,0.2,0c0.1,0,0.2,0,0.3,0.1
		c3.8,0.4,7.3,2.4,9.5,5.4L25.7,9.5z"/>
</g>
</svg>
