<?xml version="1.0" encoding="utf-8"?>
<!-- Generator: Adobe Illustrator 19.0.0, SVG Export Plug-In . SVG Version: 6.00 Build 0)  -->
<svg version="1.1" id="Layer_1" xmlns="http://www.w3.org/2000/svg" xmlns:xlink="http://www.w3.org/1999/xlink" x="0px" y="0px"
	 viewBox="0 0 17.8 17" style="enable-background:new 0 0 17.8 17;" xml:space="preserve">
<path d="M13.4,5.3c-2,0-2.9,1.1-3.4,1.9v0h0c0,0,0,0,0,0V5.5H6.2c0.1,1.1,0,11.5,0,11.5H10v-6.4c0-0.3,0-0.7,0.1-0.9
	c0.3-0.7,0.9-1.4,2-1.4c1.4,0,1.9,1.1,1.9,2.6V17h3.8v-6.6C17.8,6.9,15.9,5.3,13.4,5.3z"/>
<path d="M2.2,0C0.9,0,0,0.9,0,2c0,1.1,0.8,2,2.1,2h0c1.3,0,2.2-0.9,2.2-2C4.3,0.9,3.5,0,2.2,0z"/>
<rect x="0.2" y="5.5" width="3.8" height="11.5"/>
</svg>
