<?xml version="1.0" encoding="utf-8"?>
<!-- Generator: Adobe Illustrator 19.0.0, SVG Export Plug-In . SVG Version: 6.00 Build 0)  -->
<svg version="1.1" id="Layer_1" xmlns="http://www.w3.org/2000/svg" xmlns:xlink="http://www.w3.org/1999/xlink" x="0px" y="0px"
	 viewBox="-294.9 384.8 26.9 25" style="enable-background:new -294.9 384.8 26.9 25;" xml:space="preserve">
<path d="M-268.9,388.1V406h-1.3v-15.9h-2.3c-0.7-0.5-1.2-1.2-1.2-2.1c0-1.3,1-2.4,2.4-2.4S-268.9,386.7-268.9,388.1L-268.9,388.1
	h0.8c0,0,0,0,0-0.1c0-1.7-1.4-3.3-3.3-3.3c-0.1,0-0.2,0-0.3,0h-0.1h-13.7l0,0h-0.1l0,0c-0.1,0-0.1,0-0.2,0c-1.5,0.5-2.6,1.7-2.6,3.3
	c0,0.9,0.5,1.7,1,2.3v19.3h17.2v-2.8h2.2v-18.7H-268.9z M-287.6,388.2h2v-0.6h-2c0.1-0.9,0.8-1.7,1.9-2h12.2c-0.6,0.5-0.9,1.3-1,2.1
	h-1.5v0.5h1.5c0,0.7,0.3,1.3,0.7,1.9h-12.4C-287,389.8-287.6,389.1-287.6,388.2z M-273.4,408.8h-13.3V391h13.1v17.8H-273.4z
	 M-271.2,408.8h-1.4V391h1.4V408.8z"/>
<rect x="-285.2" y="393.8" width="6.7" height="0.9"/>
<rect x="-285.2" y="395.8" width="10.7" height="0.9"/>
<rect x="-285.2" y="397.7" width="6.7" height="0.9"/>
<rect x="-285.2" y="399.6" width="10.7" height="0.9"/>
<rect x="-285.2" y="401.6" width="6.7" height="0.9"/>
<path d="M-272.7,388c0,0.7,0.6,1.4,1.4,1.4c0.8,0,1.4-0.6,1.4-1.4c0-0.8-0.6-1.4-1.4-1.4C-272.1,386.6-272.7,387.3-272.7,388z
	 M-270.6,388c0,0.5-0.3,0.8-0.8,0.8s-0.8-0.3-0.8-0.8c0-0.5,0.3-0.8,0.8-0.8S-270.6,387.7-270.6,388z"/>
<path d="M-294.9,386v18.6l2.2,5.1l2.2-5v-18.8h-4.4V386z M-293.9,386.8h1v17.3h-1V386.8z M-292.3,406.7h-0.7l-0.8-1.7h2.2
	L-292.3,406.7z M-291.3,404.2h-1v-17.3h1V404.2z"/>
</svg>
