<?xml version="1.0" encoding="utf-8"?>
<!-- Generator: Adobe Illustrator 19.0.0, SVG Export Plug-In . SVG Version: 6.00 Build 0)  -->
<svg version="1.1" id="Layer_1" xmlns="http://www.w3.org/2000/svg" xmlns:xlink="http://www.w3.org/1999/xlink" x="0px" y="0px"
	 viewBox="0 0 232.6 109.4" style="enable-background:new 0 0 232.6 109.4;" xml:space="preserve">
<style type="text/css">
	.st0{fill:#970048;}
</style>
<path class="st0" d="M79.6,16.5c0,0-3-0.3-7.2-0.5V1c0-0.4-0.2-0.7-0.5-0.9c-0.3-0.2-0.7-0.2-1,0L58.6,7c-4.5-2.9-11-6.1-18-6.1H39
	c-7,0-13.5,3.2-18,6.1L8.9,0.1C8.6,0,8.2,0,7.8,0.1C7.5,0.3,7.3,0.7,7.3,1v15c-3.7,0.2-6.3,0.4-6.4,0.4C0.4,16.5,0,17,0,17.6
	c0.1,0.8,1.5,15.3,7.3,24.7V53c-0.4-0.1-0.7-0.2-0.8-0.2c-0.3-0.1-0.6,0-0.9,0.2c-0.3,0.2-0.4,0.5-0.4,0.8c0,0.9-0.8,22.6,7.7,35
	c6.7,9.7,14.8,14.8,19.4,17.1c4.1,2.3,7.1,3.4,7.3,3.4c0.1,0,0.2,0.1,0.4,0.1c0.1,0,0.3,0,0.4-0.1c0.2-0.1,2.9-1.2,6.7-3.4
	c4.6-2.3,12.8-7.4,19.4-17.1c1.1-1.6,2-3.4,2.9-5.2c2.1-4.1,3.4-8.5,3.7-12.9c1.5-8.7,1.2-16.4,1.2-16.9c0-0.3-0.2-0.6-0.4-0.8
	c-0.3-0.2-0.6-0.3-0.9-0.2c-0.1,0-0.3,0.1-0.6,0.2v-9.3c2.1-3.1,4-7.5,5.6-13.1c1.9-6.7,2.6-12.6,2.6-12.9c0-0.3,0-0.6-0.2-0.8
	C80.1,16.6,79.9,16.5,79.6,16.5z M9.4,2.8l11.2,6.3c0.3,0.2,0.8,0.2,1.1,0c3.1-2.1,7.5-4.4,12.3-5.5v7.5c0,0.6,0.5,1,1,1
	c0.6,0,1-0.5,1-1V3.2C36.9,3,37.9,3,38.8,3v11c0,0.6,0.5,1,1,1c0.6,0,1-0.5,1-1V3c0.9,0,1.8,0.1,2.7,0.2v7.9c0,0.6,0.5,1,1,1
	c0.6,0,1-0.5,1-1V3.6C50.5,4.6,54.9,7,58,9.1c0.3,0.2,0.7,0.2,1.1,0l11.2-6.3v13.1c-1.1,0-2.2,0-3.3,0c-10,0-16.8,1.3-20.1,3.7
	c-2.9,2.1-4.9,4.9-6.1,8.1c-0.2,0.4-0.4,0.8-0.6,1.3c-1-3.6-3.2-6.9-6.5-9.3c-3.3-2.5-10.1-3.7-20.1-3.7c-1.4,0-2.8,0-4.2,0.1V2.8z
	 M37.4,44.4c1.4-1.9,2.3-3.9,2.8-6c0.6,2.1,1.5,4.1,2.9,6c0.2,0.2,0.3,0.4,0.5,0.6c0,0-0.1,0.1-0.1,0.1L40,49.9l-3.4-4.5
	C36.9,45.1,37.2,44.8,37.4,44.4z M35.7,43.2c-0.7,1-1.5,1.8-2.4,2.6c-1.9,0.9-5,2-7.3,2c-7.1,0-12.9-5.8-12.9-12.9
	c0-7.1,5.8-12.9,12.9-12.9c6.2,0,11.5,4.4,12.7,10.3C39,36,38.1,39.9,35.7,43.2z M42.7,28.5c2.2-3.9,6.4-6.6,11.3-6.6
	c7.1,0,12.9,5.8,12.9,12.9c0,7.1-5.8,12.9-12.9,12.9c-1.9,0-4.2-0.7-6-1.5c-1.2-0.9-2.2-1.9-3.1-3.2C41.6,38.8,41,33.3,42.7,28.5z
	 M2.2,18.5c2-0.2,6.4-0.5,11.4-0.5c9.4,0,15.9,1.1,18.9,3.3c0,0,0,0,0,0c-2-0.9-4.2-1.5-6.5-1.5c-8.3,0-15,6.7-15,15
	c0,7,4.8,12.9,11.3,14.6c-3-0.2-5.8-1.2-8.4-3C5.5,40.8,2.8,23,2.2,18.5z M24.8,98.3C22,96,19.4,93.6,17.2,91
	c-0.9-1.1-1.7-2.2-2.5-3.4C8.1,78,7.3,62,7.3,56.1C26,64,35.7,84.1,29.2,101.6C27.7,100.6,26.3,99.5,24.8,98.3z M35.5,103.8
	c-0.1,0.4-0.1,0.8-0.2,1.2c-0.4-0.2-1-0.4-1.6-0.7c-0.8-0.5-1.7-1-2.7-1.6c6-15.4,0-32.8-13.4-43c5.6,3.1,11.7,8,15.1,15.1
	C38,86.2,36.2,98.6,35.5,103.8z M42.1,106.3c-1,0.5-1.7,0.8-2.1,1c-0.5-0.2-1.4-0.6-2.7-1.2c0-0.4,0.1-1.2,0.2-2
	c0.8-5.5,2.6-18.2-3-30.3C28.7,61.5,15.4,55.7,9.4,53.7v-8.5c1,1.1,2,2.1,3.2,2.9c3.3,2.2,7,3.4,10.8,3.4c4.1,0,8-1.4,11.1-4
	c0.3-0.1,0.6-0.3,0.8-0.4l3.8,5.1c0.2,0.3,0.5,0.4,0.8,0.4c0.3,0,0.6-0.2,0.8-0.4l3.8-5.1c0.6,0.3,1.4,0.7,2.4,1.1
	c2.9,2,6.3,3.1,10,3.1h0c3.7,0,7.5-1.1,10.8-3.2c0.8-0.5,1.6-1.2,2.4-1.9v7.4c-5.8,1.9-19.4,7.7-25.3,20.3c-5.6,12-3.8,24.8-3,30.3
	c0.1,0.8,0.2,1.6,0.2,2C42.1,106.1,42.1,106.2,42.1,106.3z M45.9,104.2c-0.7,0.3-1.3,0.6-1.8,0.8c0-0.3-0.1-0.7-0.2-1.2
	c-0.8-5.3-2.5-17.6,2.8-29.1c3.3-7.1,9.5-12,15.1-15.1c-13.5,10.3-19.4,27.6-13.5,43C47.5,103.2,46.7,103.7,45.9,104.2z M66.1,85.4
	C63.4,89.8,59.6,94,55,97.8c-1.6,1.4-3.2,2.6-4.8,3.7C43.8,84,53.5,64,72.1,56.1C72.1,61.6,71.5,75.8,66.1,85.4z M75.9,30
	c-2.4,8.5-5.5,14.2-9.1,16.4c-2.6,1.6-5.4,2.5-8.2,2.8c6-1.9,10.4-7.6,10.4-14.3c0-8.3-6.7-15-15-15c-1.7,0-3.3,0.3-4.8,0.8
	C52.5,18.9,58.6,18,67,18c4.9,0,9.4,0.3,11.3,0.5C78,20.5,77.3,25.1,75.9,30z"/>
<path class="st0" d="M26,25.7c-5,0-9.1,4.1-9.1,9.1c0,5,4.1,9.1,9.1,9.1c5,0,9.1-4.1,9.1-9.1C35.1,29.7,31,25.7,26,25.7z M26,38.1
	c-1.9,0-3.4-1.5-3.4-3.4s1.5-3.4,3.4-3.4c1.9,0,3.4,1.5,3.4,3.4S27.8,38.1,26,38.1z"/>
<path class="st0" d="M53.8,43.9c5,0,9.1-4.1,9.1-9.1c0-5-4.1-9.1-9.1-9.1c-5,0-9.1,4.1-9.1,9.1C44.7,39.8,48.8,43.9,53.8,43.9z
	 M53.8,31.4c1.9,0,3.4,1.5,3.4,3.4s-1.5,3.4-3.4,3.4c-1.9,0-3.4-1.5-3.4-3.4S51.9,31.4,53.8,31.4z"/>
<path class="st0" d="M99.8,58.1c-0.4,0-0.7,0.1-0.9,0.3c-0.2,0.2-0.3,0.4-0.3,0.8c0,0.5,0.1,1.1,0.4,1.7h13c0.5,0,0.8-0.1,1-0.3
	c0.2-0.2,0.3-0.5,0.3-1c0-0.5-0.1-1-0.3-1.6h-4.2c-0.1-1.9-0.2-5.6-0.2-11.2h1.4c6.5,0,11.2-1.1,14-3.3c2.8-2.2,4.2-5.2,4.2-9.1
	c0-3.8-1.2-6.5-3.5-8.2c-2.3-1.7-6.9-2.5-13.7-2.5h-10.9c-0.4,0-0.7,0.1-0.9,0.3c-0.2,0.2-0.3,0.4-0.3,0.8c0,0.5,0.1,1.1,0.3,1.7
	h3.1c0.1,2.5,0.2,6.6,0.2,12.1c0,10.4-0.1,16.8-0.2,19.4H99.8z M108.5,39c0-5.8,0.1-9.4,0.2-11c0.9-0.2,2-0.3,3.1-0.3
	c3.4,0,5.9,0.7,7.4,2.1c1.5,1.4,2.3,3.4,2.3,6.1c0,2.7-0.8,4.6-2.4,5.8c-1.6,1.1-4.4,1.7-8.4,1.7h-2.2V39z"/>
<path class="st0" d="M151.4,37.2c0.2-0.9,0.4-1.7,0.4-2.5c0-0.4-0.1-0.7-0.3-0.8c-0.2-0.1-0.5-0.2-1-0.2c-1.5,0-3.2,0.3-5.1,0.8
	c-1.9,0.5-3.8,1.5-5.8,2.8c0.1-1.4,0.1-2.5,0-3.3c-4.4,0.1-6.8,0.3-7.2,0.4c-0.4,0.1-0.6,0.4-0.6,0.9c0,0.5,0.1,1.1,0.4,1.6
	c1.2,0,2,0.4,2.4,1.3c0.4,0.9,0.6,3.9,0.6,9.3c0,4.4-0.1,7.9-0.2,10.6h-1.9c-0.5,0-0.8,0.1-1,0.3c-0.2,0.2-0.3,0.5-0.3,0.9
	c0,0.5,0.1,1.1,0.4,1.6h11.5c0.6,0,0.9-0.1,1.1-0.3c0.2-0.2,0.3-0.5,0.3-1c0-0.5-0.1-1-0.3-1.5H141c-0.1-2.7-0.2-6.8-0.2-12.4
	c0-3.1,0.5-5.2,1.5-6.2c1-1,2.3-1.5,3.9-1.5c0.7,0.9,1.1,1.4,1.2,1.5c0.1,0.1,0.6,0,1.4-0.1c0.8-0.1,1.4-0.3,1.7-0.5
	C150.8,38.6,151.1,38.1,151.4,37.2z"/>
<path class="st0" d="M176.1,57c-0.3-0.9-0.5-3.2-0.5-7.1v-8.4c0-3-0.8-5-2.3-6.1c-1.5-1.1-3.9-1.7-7.1-1.7c-2.4,0-4.7,0.1-6.8,0.4
	c-2.1,0.3-3.4,0.5-3.7,0.7c-0.3,0.2-0.4,0.5-0.4,0.8c0,0.5,0.2,1.3,0.6,2.1c0.4,0.9,0.8,1.5,1.1,1.8c0.4,0.3,1,0.4,2,0.1
	c0.9-0.2,1.5-0.4,1.6-0.5c0.1-0.1,0.4-0.6,0.9-1.7c1-0.2,2-0.3,3.1-0.3c2,0,3.5,0.6,4.3,1.9c0.8,1.2,1.3,3.5,1.4,6.7h-4
	c-4.1,0-7.2,0.7-9.1,2.2c-2,1.5-3,3.6-3,6.4c0,2.3,0.6,4,1.8,5.1c1.2,1.1,3,1.7,5.5,1.7c1.5,0,3.1-0.2,4.7-0.7
	c1.6-0.5,3.2-1.1,4.7-2c0.7,1.3,1.3,2.1,1.6,2.2c0.3,0.2,0.8,0.2,1.5,0.2c1.3,0,2.3-0.2,3.1-0.5c0.8-0.3,1.2-0.8,1.2-1.4
	c0-0.4-0.1-0.8-0.3-1.2C176.9,58.2,176.4,57.9,176.1,57z M170.2,51.1c0,1.8-0.2,3.1-0.5,4c-0.3,0.8-1,1.5-2,2
	c-1,0.5-2.1,0.7-3.3,0.7c-1.5,0-2.7-0.4-3.4-1.1c-0.7-0.7-1.1-1.8-1.1-3.3c0-1.5,0.4-2.6,1.2-3.3c0.8-0.7,2.3-1,4.3-1
	c1.7,0,3.3,0.1,4.8,0.4V51.1z"/>
<path class="st0" d="M199.1,34.3c-0.5,0-0.8,0.1-1,0.3c-0.2,0.2-0.3,0.6-0.3,1.1c0,0.5,0.1,1.1,0.3,1.6h1.5
	c-0.2,1.9-1.2,5.6-2.8,11.1c-1.6,5.5-2.5,8.2-2.7,8.2c-0.2,0-1-2.6-2.5-7.8c-1.5-5.2-2.4-8.7-2.7-10.4c-0.3-1.7-0.6-2.7-0.8-3.2
	c-0.2-0.5-0.6-0.8-1-1c-0.4-0.2-1.2-0.3-2.3-0.3c-2.6,0-4.1,0.1-4.7,0.2c-0.6,0.2-0.9,0.5-0.9,1.1c0,0.5,0.1,1.1,0.4,1.6
	c0.6,0,1.1,0.1,1.5,0.2c0.4,0.1,0.7,0.4,1,0.9c0.3,0.5,0.7,1.3,1.1,2.5c0.4,1.1,1.6,4.8,3.6,11c2,6.2,3,9.4,3.2,9.6
	c0.2,0.2,1.3,0.3,3.5,0.3c1.3,0,2.3-0.4,2.9-1.2c0.6-0.8,2-4.4,4.1-10.7c2.1-6.3,3.5-10.3,4.2-12.2h0.4c0.6,0,1-0.1,1.2-0.3
	c0.2-0.2,0.4-0.6,0.4-1.1c0-0.6-0.1-1.1-0.4-1.6H199.1z"/>
<path class="st0" d="M229.8,36.7c-1.8-2.1-4.7-3.1-8.7-3.1c-4.2,0-7.4,1.3-9.7,4c-2.2,2.7-3.4,6.4-3.4,11.3c0,4.2,0.9,7.3,2.8,9.4
	c1.8,2.1,4.7,3.1,8.7,3.1c4.2,0,7.4-1.3,9.7-4c2.2-2.7,3.4-6.4,3.4-11.2C232.6,41.9,231.7,38.8,229.8,36.7z M225.1,55.4
	c-0.9,1.6-2.4,2.3-4.5,2.3c-2.3,0-4-0.9-4.9-2.7c-0.9-1.8-1.4-4.6-1.4-8.3c0-3.3,0.5-5.7,1.4-7.2c0.9-1.6,2.4-2.3,4.5-2.3
	c2.3,0,4,0.9,4.9,2.7c1,1.8,1.4,4.6,1.4,8.3C226.4,51.5,226,53.9,225.1,55.4z"/>
<path class="st0" d="M108.2,83c-0.2-0.4-0.2-1.4-0.2-3.2V76c0-1.3-0.3-2.2-1-2.7c-0.7-0.5-1.8-0.7-3.2-0.7c-1.1,0-2.1,0.1-3.1,0.2
	c-1,0.1-1.5,0.2-1.6,0.3c-0.1,0.1-0.2,0.2-0.2,0.4c0,0.2,0.1,0.6,0.3,1c0.2,0.4,0.3,0.7,0.5,0.8c0.2,0.2,0.5,0.2,0.9,0.1
	c0.4-0.1,0.7-0.2,0.7-0.2c0,0,0.2-0.3,0.4-0.8c0.4-0.1,0.9-0.1,1.4-0.1c0.9,0,1.6,0.3,1.9,0.8c0.4,0.6,0.6,1.6,0.6,3h-1.8
	c-1.9,0-3.2,0.3-4.1,1c-0.9,0.7-1.3,1.6-1.3,2.9c0,1,0.3,1.8,0.8,2.3c0.5,0.5,1.4,0.8,2.5,0.8c0.7,0,1.4-0.1,2.1-0.3
	c0.7-0.2,1.4-0.5,2.1-0.9c0.3,0.6,0.6,0.9,0.7,1c0.2,0.1,0.4,0.1,0.7,0.1c0.6,0,1.1-0.1,1.4-0.2c0.3-0.1,0.5-0.4,0.5-0.6
	c0-0.2,0-0.3-0.1-0.5C108.6,83.5,108.4,83.4,108.2,83z M105.6,80.3c0,0.8-0.1,1.4-0.2,1.8c-0.2,0.4-0.5,0.7-0.9,0.9
	c-0.5,0.2-1,0.3-1.5,0.3c-0.7,0-1.2-0.2-1.5-0.5c-0.3-0.3-0.5-0.8-0.5-1.5c0-0.7,0.2-1.2,0.6-1.5c0.4-0.3,1-0.5,2-0.5
	c0.8,0,1.5,0.1,2.2,0.2V80.3z"/>
<path class="st0" d="M121.9,74c0.2,0,0.3-0.2,0.5-0.6c0.2-0.4,0.3-0.7,0.3-0.9c0-0.1,0-0.2-0.1-0.3c-0.1-0.1-0.6-0.1-1.6-0.1
	c-0.2,0-0.8,0.2-1.9,0.7c-0.8-0.3-1.7-0.5-2.7-0.5c-1.8,0-3.1,0.5-4,1.4c-0.9,0.9-1.3,2.1-1.3,3.5c0,0.9,0.2,1.6,0.5,2.1
	c0.3,0.5,0.7,0.9,1.3,1.1c-0.6,0.3-1.1,0.7-1.4,1.1c-0.3,0.4-0.5,0.9-0.5,1.4c0,0.5,0.1,0.9,0.4,1.2c0.2,0.3,0.6,0.6,1,0.7
	c-0.5,0.5-0.8,1-1.1,1.5c-0.3,0.5-0.4,1-0.4,1.5c0,0.7,0.2,1.2,0.7,1.6c0.5,0.4,1.4,0.6,2.8,0.6c2.8,0,4.9-0.4,6.2-1.1
	c1.3-0.8,2-1.8,2-3.1c0-0.9-0.3-1.5-0.9-1.9c-0.6-0.4-2-0.7-4.1-0.7c-2.2,0-3.4-0.1-3.8-0.3c-0.3-0.2-0.5-0.5-0.5-0.9
	c0-0.4,0.1-0.6,0.4-0.8c0.3-0.2,0.8-0.3,1.7-0.3c1.9,0,3.3-0.4,4.2-1.3c0.9-0.8,1.3-2,1.3-3.3c0-0.9-0.2-1.8-0.7-2.6l0.3-0.4
	C121.1,73.8,121.7,74,121.9,74z M113.1,86.1c0.2-0.4,0.4-0.7,0.7-1c3,0,4.7,0.1,5.3,0.3c0.5,0.2,0.8,0.6,0.8,1.2
	c0,0.7-0.4,1.2-1.1,1.5c-0.7,0.4-1.9,0.5-3.3,0.5c-1,0-1.7-0.1-2-0.4c-0.3-0.2-0.5-0.6-0.5-1.2C112.9,86.8,113,86.4,113.1,86.1z
	 M117.6,79.1c-0.4,0.4-1,0.6-1.8,0.6c-0.8,0-1.3-0.2-1.7-0.7c-0.4-0.4-0.5-1.2-0.5-2.1c0-1.1,0.2-1.9,0.6-2.4c0.4-0.4,1-0.7,1.7-0.7
	c0.8,0,1.4,0.2,1.8,0.7c0.4,0.5,0.6,1.2,0.6,2.2C118.1,77.9,118,78.7,117.6,79.1z"/>
<path class="st0" d="M132.9,78.6c0.3-0.3,0.4-0.8,0.4-1.5c0-1.6-0.4-2.8-1.1-3.6c-0.7-0.7-1.9-1.1-3.4-1.1c-1.8,0-3.3,0.6-4.3,1.8
	c-1,1.2-1.5,2.8-1.5,4.9c0,2.1,0.5,3.6,1.4,4.5c0.9,0.9,2.4,1.3,4.5,1.3c1.1,0,2.2-0.1,3.1-0.3c0.9-0.2,1.4-0.6,1.4-1.2
	c0-0.4-0.2-0.8-0.5-1.1c-1.1,0.6-2.2,1-3.4,1c-1.3,0-2.2-0.4-2.7-1.1c-0.5-0.8-0.8-1.8-0.8-3.1h5.4C132.1,79,132.7,78.9,132.9,78.6z
	 M130.7,77.3c-0.1,0.1-0.4,0.2-0.8,0.3c-0.5,0.1-1.4,0.1-2.7,0.1h-1.3c0-1.2,0.3-2.2,0.7-2.7c0.4-0.6,1-0.9,1.9-0.9
	c0.8,0,1.4,0.2,1.8,0.7c0.4,0.5,0.6,1.1,0.6,1.9C130.8,77,130.7,77.2,130.7,77.3z"/>
<path class="st0" d="M146.6,83.1c-0.1-0.3-0.2-2.6-0.2-7c0-1.4-0.3-2.4-0.8-2.9c-0.6-0.5-1.4-0.8-2.5-0.8c-0.6,0-1.3,0.1-2.1,0.4
	c-0.8,0.3-1.6,0.6-2.4,1.2c0-0.6,0-1.1,0-1.4c-2,0.1-3.1,0.1-3.2,0.2c-0.2,0.1-0.3,0.2-0.3,0.4c0,0.2,0.1,0.5,0.2,0.7
	c0.5,0,0.9,0.2,1.1,0.6c0.2,0.4,0.3,1.8,0.3,4.2c0,1.9,0,3.5-0.1,4.8h-0.8c-0.2,0-0.4,0-0.4,0.1c-0.1,0.1-0.1,0.2-0.1,0.4
	c0,0.2,0.1,0.5,0.2,0.7h4.8c0.3,0,0.4,0,0.5-0.1c0.1-0.1,0.1-0.2,0.1-0.5c0-0.2,0-0.5-0.1-0.7h-1.4c-0.1-1.2-0.1-2.5-0.1-4v-2.6
	c0-1,0.2-1.7,0.7-2.1c0.5-0.4,1.1-0.6,1.8-0.6c0.8,0,1.4,0.3,1.7,0.8c0.4,0.6,0.5,1.7,0.5,3.4v5.3c0,0.3,0,0.6,0.1,0.7
	c0.1,0.1,0.3,0.2,0.5,0.3c0.3,0,0.9,0,2.1,0c0.4,0,0.6,0,0.8-0.1c0.1-0.1,0.2-0.2,0.2-0.4c0-0.2,0-0.5-0.1-0.7
	C147,83.5,146.7,83.4,146.6,83.1z"/>
<path class="st0" d="M155,83.3c-1.2,0-2.1-0.4-2.5-1.2c-0.5-0.8-0.7-2-0.7-3.6c0-1.5,0.2-2.7,0.7-3.4c0.5-0.7,1.3-1.1,2.4-1.1
	c0.9,0,1.9,0.3,3.1,1c0.3-0.4,0.5-0.9,0.5-1.4c0-0.4-0.3-0.7-0.7-0.9c-0.5-0.2-1.3-0.3-2.3-0.3c-2.2,0-3.8,0.6-4.9,1.8
	c-1.1,1.2-1.6,2.9-1.6,5.2c0,2,0.4,3.5,1.3,4.3c0.8,0.8,2.3,1.3,4.3,1.3c1.1,0,2-0.1,2.9-0.4c0.8-0.2,1.3-0.6,1.3-1.1
	c0-0.4-0.1-0.8-0.4-1.2C157,83,155.9,83.3,155,83.3z"/>
<path class="st0" d="M168.4,72.7c-0.2,0-0.4,0-0.5,0.1c-0.1,0.1-0.1,0.3-0.1,0.5c0,0.2,0,0.5,0.1,0.7h0.7c-0.1,0.8-0.5,2.5-1.2,5
	c-0.7,2.5-1,3.8-1.1,3.8c-0.1,0-0.4-1.1-1-3.3c-0.6-2.2-1-3.8-1.2-4.7c-0.2-0.9-0.3-1.5-0.4-1.7c-0.1-0.2-0.2-0.4-0.5-0.4
	c-0.2-0.1-0.7-0.1-1.3-0.1c-0.8,0-1.4,0-1.7,0.1c-0.3,0.1-0.4,0.2-0.4,0.5c0,0.2,0.1,0.5,0.2,0.7c0.3,0,0.5,0,0.7,0.1
	c0.2,0.1,0.3,0.2,0.4,0.4c0.1,0.2,0.3,0.6,0.5,1.2c0.2,0.6,0.7,2.3,1.5,5c0.8,2.7,1.2,4.1,1.3,4.1c0.1,0,0.4,0.1,1.1,0.1
	c-0.7,2.3-1.4,3.4-2.2,3.5c-0.7,0.1-1.9,0-3.4-0.3c-0.3,0.4-0.4,0.7-0.4,1.2c0,0.4,0.1,0.6,0.4,0.7c0.3,0.1,0.8,0.2,1.7,0.2
	c0.9,0,1.7-0.1,2.4-0.3c0.7-0.2,1.4-0.6,1.9-1.3c0.6-0.7,1.4-3,2.6-6.8c1.2-3.8,2-6.4,2.4-7.6h0.3c0.3,0,0.4,0,0.6-0.1
	c0.1-0.1,0.2-0.3,0.2-0.5c0-0.3-0.1-0.5-0.2-0.7H168.4z"/>
</svg>
