<?xml version="1.0" encoding="utf-8"?>
<!-- Generator: Adobe Illustrator 19.0.0, SVG Export Plug-In . SVG Version: 6.00 Build 0)  -->
<svg version="1.1" id="Layer_1" xmlns="http://www.w3.org/2000/svg" xmlns:xlink="http://www.w3.org/1999/xlink" x="0px" y="0px"
	 viewBox="-295.9 385 25.4 25" style="enable-background:new -295.9 385 25.4 25;" xml:space="preserve">
<path d="M-295.8,385v22.9h25.2V385H-295.8z M-287,385.8v21.2h-3.5v-21.2C-290.5,385.8-287,385.8-287,385.8z M-295.1,385.8h3.7v21.2
	h-3.7V385.8z M-271.4,407.1H-286v-21.2h14.6V407.1z"/>
<path d="M-293.1,402.7c-0.8,0-1.4,0.6-1.4,1.4c0,0.8,0.6,1.4,1.4,1.4s1.4-0.6,1.4-1.4C-291.7,403.3-292.4,402.7-293.1,402.7z
	 M-293.1,404.7c-0.2,0-0.5-0.2-0.5-0.5c0-0.2,0.2-0.5,0.5-0.5c0.2,0,0.5,0.2,0.5,0.5C-292.6,404.5-292.9,404.7-293.1,404.7z"/>
<path d="M-288.7,405.5c0.8,0,1.4-0.6,1.4-1.4c0-0.8-0.6-1.4-1.4-1.4s-1.4,0.6-1.4,1.4C-290.1,404.9-289.4,405.5-288.7,405.5z
	 M-288.7,403.6c0.2,0,0.5,0.2,0.5,0.5c0,0.2-0.2,0.5-0.5,0.5c-0.2,0-0.5-0.2-0.5-0.5C-289.2,403.9-289,403.6-288.7,403.6z"/>
<rect x="-295.9" y="409.1" width="25.2" height="0.9"/>
<rect x="-283.7" y="389.6" width="6.8" height="0.9"/>
<rect x="-283.7" y="391.7" width="10" height="0.9"/>
<rect x="-283.7" y="393.8" width="6.8" height="0.9"/>
<rect x="-283.7" y="396" width="10" height="0.9"/>
</svg>
