<?xml version="1.0" encoding="utf-8"?>
<!-- Generator: Adobe Illustrator 19.0.0, SVG Export Plug-In . SVG Version: 6.00 Build 0)  -->
<svg version="1.1" id="Layer_1" xmlns="http://www.w3.org/2000/svg" xmlns:xlink="http://www.w3.org/1999/xlink" x="0px" y="0px"
	 viewBox="-293.1 384.1 25.1 25" style="enable-background:new -293.1 384.1 25.1 25;" xml:space="preserve">
<path d="M-270.3,386.3v-2.2h-2.7v1.6h-1.2v1.3h-1.5v1c-1.7-1-3.7-1.7-5.9-1.7c-6.3,0-11.4,5.1-11.4,11.4c0,6.3,5.1,11.4,11.4,11.4
	s11.4-5.1,11.4-11.4c0-2.1-0.6-4-1.6-5.7h1v-1.7h1.3v-1.4h1.6v-2.5H-270.3z M-271.1,397.7c0,5.8-4.7,10.6-10.6,10.6
	c-5.8,0-10.6-4.7-10.6-10.6c0-5.8,4.7-10.7,10.6-10.7c2.2,0,4.2,0.7,5.9,1.8v2.4l-0.4,0.4c-1.4-1.3-3.4-2.1-5.5-2.1
	c-4.5,0-8.2,3.6-8.2,8.2c0,4.5,3.6,8.2,8.2,8.2c4.5,0,8.2-3.6,8.2-8.2c0-2.1-0.8-4-2.1-5.4l0.3-0.3h2.5
	C-271.7,393.6-271.1,395.6-271.1,397.7z M-280.9,397.7c0,0.4-0.4,0.8-0.8,0.8c-0.4,0-0.8-0.4-0.8-0.8c0-0.4,0.4-0.8,0.8-0.8
	c0.1,0,0.2,0,0.3,0.1l-0.1,0.1c-0.1,0.1-0.1,0.4,0,0.5c0.1,0.1,0.2,0.1,0.3,0.1C-281.2,397.7-281.1,397.7-280.9,397.7v-0.2
	C-280.9,397.6-280.9,397.6-280.9,397.7z M-280.9,396.4c-0.2-0.2-0.5-0.2-0.8-0.2c-0.9,0-1.5,0.7-1.5,1.5c0,0.8,0.7,1.5,1.5,1.5
	c0.8,0,1.5-0.7,1.5-1.5c0-0.3-0.1-0.5-0.2-0.7l1.9-2c0.6,0.7,1,1.7,1,2.7c0,2.4-1.9,4.3-4.3,4.3c-2.4,0-4.2-2-4.2-4.3
	c0-2.3,1.9-4.3,4.3-4.3c1.1,0,2,0.4,2.8,1L-280.9,396.4z M-278.4,393.9c-0.9-0.8-2-1.3-3.3-1.3c-2.8,0-5,2.3-5,5s2.3,5,5,5
	c2.7,0,5-2.3,5-5c0-1.2-0.5-2.4-1.2-3.2l1.7-1.7c1.2,1.3,1.9,3,1.9,4.9c0,4.1-3.3,7.5-7.5,7.5c-4.1,0-7.5-3.3-7.5-7.5
	c0-4.1,3.3-7.5,7.5-7.5c1.9,0,3.6,0.7,4.9,1.9L-278.4,393.9z M-268.8,388h-1.6v1.5h-1.3v1.6h-2.9l3.1-3.2c0.1-0.1,0.1-0.4,0-0.5
	c-0.1-0.1-0.4-0.1-0.5,0l-3,3.1v-2.8h1.5v-1.3h1.2v-1.5h1.2v2.2h2.3C-268.8,387.1-268.8,388-268.8,388z"/>
</svg>
