<?xml version="1.0" encoding="utf-8"?>
<!-- Generator: Adobe Illustrator 19.0.0, SVG Export Plug-In . SVG Version: 6.00 Build 0)  -->
<svg version="1.1" id="Слой_1" xmlns="http://www.w3.org/2000/svg" xmlns:xlink="http://www.w3.org/1999/xlink" x="0px" y="0px"
	 viewBox="0 0 37.3 37.3" style="enable-background:new 0 0 37.3 37.3;" xml:space="preserve">
<path d="M21.6,18.7l-1.4,1.4v-7.2c0-0.8-0.7-1.5-1.5-1.5s-1.5,0.7-1.5,1.5v7.2l-1.6-1.6c-0.6-0.6-1.5-0.6-2.1,0
	c-0.6,0.6-0.6,1.5,0,2.1l4.2,4.2c0.3,0.3,0.7,0.4,1.1,0.4c0,0,0,0,0,0c0.4,0,0.8-0.2,1.1-0.4l4-4.1c0.6-0.6,0.6-1.5,0-2.1
	C23.1,18.1,22.1,18.1,21.6,18.7z"/>
<path d="M18.6,0C8.4,0,0,8.4,0,18.6s8.4,18.6,18.6,18.6c10.3,0,18.6-8.4,18.6-18.6S28.9,0,18.6,0z M18.6,34.3C10,34.3,3,27.3,3,18.6
	S10,3,18.6,3c8.6,0,15.6,7,15.6,15.6S27.3,34.3,18.6,34.3z"/>
</svg>
