<?xml version="1.0" encoding="utf-8"?>
<!-- Generator: Adobe Illustrator 19.0.0, SVG Export Plug-In . SVG Version: 6.00 Build 0)  -->
<svg version="1.1" id="Слой_1" xmlns="http://www.w3.org/2000/svg" xmlns:xlink="http://www.w3.org/1999/xlink" x="0px" y="0px"
	 viewBox="-302.4 388.2 23.8 17" style="enable-background:new -302.4 388.2 23.8 17;" xml:space="preserve">
<style type="text/css">
	.st0{fill:#00ACEC;}
</style>
<path id="Shape_16_copy_3" class="st0" d="M-287.5,388.4c-2,0.5-3.4,2.3-3.4,4.3l0.1,0.7l-0.9-0.1c-3-0.3-5.9-1.5-8.2-3.5l-1.1-1
	l-0.3,0.7c-0.6,1.6-0.2,3.3,1.1,4.4c0.7,0.6,0.5,0.7-0.7,0.4c-0.3-0.1-0.5-0.2-0.8-0.2c0.1,0.7,0.3,1.4,0.6,2
	c0.6,0.9,1.4,1.5,2.4,1.9l0.8,0.4l-1,0c-1,0-1,0-0.9,0.3c0.7,1.2,1.8,2.1,3.2,2.5l1.1,0.3l-0.9,0.5c-1.4,0.7-3,1.1-4.6,1.1
	c-0.5,0-0.9,0-1.4,0.1c1,0.6,2.2,1,3.3,1.3c3.8,1,7.8,0.6,11.3-1.1c4-2,6.6-5.9,6.9-10.3c0-0.7,0.4-1.3,1-1.6
	c0.4-0.4,0.8-0.7,1.2-1.1c0.2-0.3,0.2-0.3-0.7,0c-1.5,0.4-1.7,0.4-0.9-0.3c0.5-0.4,0.9-1,1.2-1.6c-0.2,0-0.4,0.1-0.6,0.2
	c-0.5,0.2-1,0.4-1.5,0.5l-0.9,0.3l-0.8-0.5c-0.5-0.3-1-0.5-1.5-0.7C-285.5,388.1-286.5,388.1-287.5,388.4z"/>
</svg>
