<?xml version="1.0" encoding="utf-8"?>
<!-- Generator: Adobe Illustrator 19.0.0, SVG Export Plug-In . SVG Version: 6.00 Build 0)  -->
<svg version="1.1" id="Слой_1" xmlns="http://www.w3.org/2000/svg" xmlns:xlink="http://www.w3.org/1999/xlink" x="0px" y="0px"
	 viewBox="-294 389.1 19 14.8" style="enable-background:new -294 389.1 19 14.8;" xml:space="preserve">
<style type="text/css">
	.st0{fill:#FB4040;}
</style>
<path class="st0" d="M-278.2,396.8c0.1-1.2,0.4-2.2,1-3.1c0.6-0.8,1.3-1.6,2.3-2.3l-1.8-2.4c-0.8,0.4-1.6,0.9-2.4,1.6
	c-0.8,0.7-1.5,1.4-2,2.3c-0.6,0.9-1.1,1.8-1.4,2.8s-0.5,2.1-0.5,3.3c0,0.5,0.1,1.1,0.2,1.7c0.1,0.6,0.4,1.1,0.7,1.6
	c0.3,0.5,0.8,0.9,1.3,1.2c0.5,0.3,1.2,0.5,2,0.5c1.1,0,2-0.4,2.7-1.1c0.7-0.7,1-1.5,1-2.4c0-0.9-0.3-1.7-0.8-2.4
	C-276.7,397.3-277.4,396.9-278.2,396.8z"/>
<path class="st0" d="M-285.8,391.5l-1.8-2.4c-0.8,0.4-1.6,0.9-2.4,1.6c-0.8,0.7-1.5,1.4-2,2.3c-0.6,0.9-1.1,1.8-1.4,2.8
	c-0.4,1-0.5,2.1-0.5,3.3c0,0.5,0.1,1.1,0.2,1.7c0.1,0.6,0.4,1.1,0.7,1.6c0.3,0.5,0.8,0.9,1.3,1.2c0.5,0.3,1.2,0.5,2,0.5
	c1.1,0,2-0.4,2.7-1.1c0.7-0.7,1-1.5,1-2.4c0-0.9-0.3-1.7-0.8-2.4c-0.5-0.7-1.2-1-2-1.1c0.1-1.2,0.4-2.2,1-3.1
	C-287.5,392.9-286.7,392.2-285.8,391.5z"/>
</svg>
